# xmcd
#
# Track frame offsets: 
#        150
#        14448
#        30730
#        43805
#        63565
#        83043
#        104484
#        120049
#        128894
#        152778
#        167144
#        183803
#        201931
#
# Disc length: 2975 seconds
#
# Revision: 1
# Processed by: cddbd v1.5.2PL0 Copyright (c) Steve Scherf et al.
# Submitted via: ExactAudioCopy v1.3
#
DISCID=a80b9d0d
DTITLE=The Gourds - Heavy Ornamentals
DYEAR=2006
DGENRE=Country/rock
TTITLE0=Decline-o-meter
TTITLE1=Burn the Honeysuckle
TTITLE2=Mister Betty
TTITLE3=Shake the Chandelier
TTITLE4=New Roomate
TTITLE5=Hooky Junk
TTITLE6=Weather Woman
TTITLE7="Stab"
TTITLE8=Our Patriarch
TTITLE9=The Education Song
TTITLE10=Collection's
TTITLE11=Pill Bug Blues
TTITLE12=Pick and Roll
EXTD=
EXTT0=
EXTT1=
EXTT2=
EXTT3=
EXTT4=
EXTT5=
EXTT6=
EXTT7=
EXTT8=
EXTT9=
EXTT10=
EXTT11=
EXTT12=
PLAYORDER=
